{"title":"Enemy at the Gates 2001 BRRip Hindi~3385VKSH","uid":5813739,"size":2134570782,"categoryP":"video","categoryS":"hd___movies","magnet":"?xt=urn:btih:28736c0eeb1ab4ba31f6b960ad7b41bbfd23fffd&amp;dn=Enemy+at+the+Gates+2001+BRRip+Hindi%7E3385VKSH&amp;tr=udp%3A%2F%2Ftracker.openbittorrent.com%3A80&amp;tr=udp%3A%2F%2Fopen.demonii.com%3A1337&amp;tr=udp%3A%2F%2Ftracker.coppersurfer.tk%3A6969&amp;tr=udp%3A%2F%2Fexodus.desync.com%3A6969","seeders":0,"leechers":1,"uploader":"3385VKSH","files":-1,"time":1283755455,"description":"                    -----=====HD Desi Rockers Releases=====-----\n\n\nPlot:\n\nIn World War II, the fall of Stalingrad will mean the collapse of the whole country. The Germans and Russians are fighting over every block, leaving only ruins behind. The Russian sniper Vassili Zaitsev stalks the Germans, taking them out one by one, thus hurting the morale of the German troops. The political officer Danilov leads him on, publishing his efforts to give his countrymen some hope. But Vassili eventually start to feel that he can not live up to the expectations on him. He and Danilov fall in love with the same girl, Tanya, a female soldier. From Germany comes the master sniper KÃƒÂ¶nig to put an end to the extraordinary skilled Russian sniper.\n\nCast:\n\n\tJude Law\t          ... \tVassili Zaitsev\n\n\tEd Harris\t          ... \tMajor KÃƒÂ¶nig\n\n\tRachel Weisz\t          ... \tTania Chernova\n\n\tJoseph Fiennes\t          ... \tCommisar Danilov\n\n\tBob Hoskins\t          ... \tNikita Khrushchev\n\n\tRon Perlman\t          ... \tKoulikov\n\n\tEva Mattes\t          ... \tMother Filipov\n\n\tGabriel Thomson\t          ... \tSacha Filipov (as Gabriel Marshall-Thomson)\n\n\tMatthias Habich\t          ... \tGeneral Paulus\n\n\tSophie Rois\t          ... \tLudmilla\n\n\tIvan Shvedoff\t          ... \tVolodya\n \n\tMario Bandi\t          ... \tAnton\n\n\tHans Martin Stier\t  ... \tRed Army General\n\n\tClemens Schick\t          ... \tGerman NCO (as Clemans Schick)\n\n\tMikhail N. Matveev\t  ... \tGrandfather (as Mikhail Matveev)\n\nGeneral\nComplete name                    : Enemy at the Gates 2001 BRRip HIndi~3385VKSH\nFormat                           : Matroska\nFile size                        : 1.99 GiB\nDuration                         : 2h 5mn\nOverall bit rate                 : 2 264 Kbps\nEncoded date                     : UTC 2010-08-19 06:00:22\nWriting application              : mkvmerge v4.2.0 ('No Talking') built on Jul 28 2010 18:38:23\nWriting library                  : libebml v1.0.0 + libmatroska v1.0.0\n\n\nVideo\nID                               : 1\nFormat                           : AVC\nFormat/Info                      : Advanced Video Codec\nFormat profile                   : &lt;a class=&quot;__cf_email__&quot; href=&quot;/cdn-cgi/l/email-protection&quot; data-cfemail=&quot;7931101e1139354d5748&quot;&gt;[email&amp;#160;protected]&lt;/a&gt;&lt;script data-cfhash='f9e31' type=&quot;text/javascript&quot;&gt;\n/* &lt;![CDATA[ */!function(){try{var t=&quot;currentScript&quot;in document?document.currentScript:function(){for(var t=document.getElementsByTagName(&quot;script&quot;),e=t.length;e--;)if(t[e].getAttribute(&quot;data-cfhash&quot;))return t[e]}();if(t&amp;&amp;t.previousSibling){var e,r,n,i,c=t.previousSibling,a=c.getAttribute(&quot;data-cfemail&quot;);if(a){for(e=&quot;&quot;,r=parseInt(a.substr(0,2),16),n=2;a.length-n;n+=2)i=parseInt(a.substr(n,2),16)^r,e+=String.fromCharCode(i);e=document.createTextNode(e),c.parentNode.replaceChild(e,c)}t.parentNode.removeChild(t);}}catch(u){}}()/* ]]&gt; */&lt;/script&gt;\nFormat settings, CABAC           : Yes\nFormat settings, ReFrames        : 4 frames\nMuxing mode                      : Container profile=&lt;a class=&quot;__cf_email__&quot; href=&quot;/cdn-cgi/l/email-protection&quot; data-cfemail=&quot;2673484d4849514866120817&quot;&gt;[email&amp;#160;protected]&lt;/a&gt;&lt;script data-cfhash='f9e31' type=&quot;text/javascript&quot;&gt;\n/* &lt;![CDATA[ */!function(){try{var t=&quot;currentScript&quot;in document?document.currentScript:function(){for(var t=document.getElementsByTagName(&quot;script&quot;),e=t.length;e--;)if(t[e].getAttribute(&quot;data-cfhash&quot;))return t[e]}();if(t&amp;&amp;t.previousSibling){var e,r,n,i,c=t.previousSibling,a=c.getAttribute(&quot;data-cfemail&quot;);if(a){for(e=&quot;&quot;,r=parseInt(a.substr(0,2),16),n=2;a.length-n;n+=2)i=parseInt(a.substr(n,2),16)^r,e+=String.fromCharCode(i);e=document.createTextNode(e),c.parentNode.replaceChild(e,c)}t.parentNode.removeChild(t);}}catch(u){}}()/* ]]&gt; */&lt;/script&gt;\nCodec ID                         : V_MPEG4/ISO/AVC\nDuration                         : 2h 5mn\nBit rate                         : 1 957 Kbps\nWidth                            : 1 280 pixels\nHeight                           : 544 pixels\nDisplay aspect ratio             : 2.35:1\nFrame rate                       : 25.000 fps\nOriginal frame rate              : 23.976 fps\nColor space                      : YUV\nChroma subsampling               : 4:2:0\nBit depth                        : 8 bits\nScan type                        : Progressive\nBits/(Pixel*Frame)               : 0.112\nStream size                      : 1.75 GiB (88%)\n\nAudio\nID                               : 2\nFormat                           : MPEG Audio\nFormat version                   : Version 1\nFormat profile                   : Layer 3\nCodec ID                         : A_MPEG/L3\nCodec ID/Hint                    : MP3\nDuration                         : 1h 0mn\nBit rate mode                    : Constant\nBit rate                         : 224 Kbps\nChannel(s)                       : 2 channels\nSampling rate                    : 44.1 KHz\nStream size                      : 96.5 MiB (5%)\nWriting library                  : LAME3.96r\nEncoding settings                : -m s -V 4 -q 2 -lowpass 20 -b 224\nLanguage                         : Hindi\n &lt;a href=&quot;\nhttp://img28.imageshack.us/img28/730/enemyatthegates2001brri.jpg&quot; rel=&quot;nofollow&quot; target=&quot;_NEW&quot;&gt;\nhttp://img28.imageshack.us/img28/730/enemyatthegates2001brri.jpg&lt;/a&gt;\n &lt;a href=&quot;\nhttp://img801.imageshack.us/img801/730/enemyatthegates2001brri.jpg&quot; rel=&quot;nofollow&quot; target=&quot;_NEW&quot;&gt;\nhttp://img801.imageshack.us/img801/730/enemyatthegates2001brri.jpg&lt;/a&gt;\n &lt;a href=&quot;\nhttp://img228.imageshack.us/img228/730/enemyatthegates2001brri.jpg&quot; rel=&quot;nofollow&quot; target=&quot;_NEW&quot;&gt;\nhttp://img228.imageshack.us/img228/730/enemyatthegates2001brri.jpg&lt;/a&gt;\n &lt;a href=&quot;\nhttp://img85.imageshack.us/img85/730/enemyatthegates2001brri.jpg&quot; rel=&quot;nofollow&quot; target=&quot;_NEW&quot;&gt;\nhttp://img85.imageshack.us/img85/730/enemyatthegates2001brri.jpg&lt;/a&gt;\n &lt;a href=&quot;\nhttp://img15.imageshack.us/img15/730/enemyatthegates2001brri.jpg&quot; rel=&quot;nofollow&quot; target=&quot;_NEW&quot;&gt;\nhttp://img15.imageshack.us/img15/730/enemyatthegates2001brri.jpg&lt;/a&gt;\n\n","torrent":{"xt":"urn:btih:28736c0eeb1ab4ba31f6b960ad7b41bbfd23fffd","amp;dn":"Enemy+at+the+Gates+2001+BRRip+Hindi%7E3385VKSH","amp;tr":["udp%3A%2F%2Ftracker.openbittorrent.com%3A80","udp%3A%2F%2Fopen.demonii.com%3A1337","udp%3A%2F%2Ftracker.coppersurfer.tk%3A6969","udp%3A%2F%2Fexodus.desync.com%3A6969"],"infoHash":"28736c0eeb1ab4ba31f6b960ad7b41bbfd23fffd","infoHashBuffer":{"type":"Buffer","data":[40,115,108,14,235,26,180,186,49,246,185,96,173,123,65,187,253,35,255,253]},"announce":[],"urlList":[]}}